<svg xmlns="http://www.w3.org/2000/svg" viewBox="0 0 96 96"><defs><style>.cls-1{fill:#fff;fill-opacity:0;opacity:0;}.cls-2{fill:#0083ca;}.cls-3{fill:#ffd400;}.cls-4{fill:#ffc20e;}.cls-5{fill:none;}.cls-6{fill:#00416b;}.cls-7{fill:#cd992b;}</style></defs><g id="icones"><g id="precos-prazos"><rect class="cls-1" width="96" height="96"/><rect class="cls-2" x="69.64" y="23.48" width="8.93" height="10.83" rx="2.12" transform="translate(42.14 -43.94) rotate(45)"/><circle class="cls-3" cx="48" cy="54" r="32"/><path class="cls-4" d="M80,54A32,32,0,0,1,25.62,76.88L70.88,31.62A31.92,31.92,0,0,1,80,54Z"/><path class="cls-5" d="M80,54a32,32,0,1,1-9.12-22.38A32,32,0,0,1,80,54Z"/><rect class="cls-6" x="38" y="8" width="20" height="8" rx="4"/><rect class="cls-6" x="44" y="9" width="8" height="13"/><path class="cls-7" d="M48,88A34,34,0,1,1,82,54,34,34,0,0,1,48,88Zm0-64A30,30,0,1,0,78,54,30,30,0,0,0,48,24Z"/><path class="cls-6" d="M48,73c-6.06,0-12-5.45-12-11h6c0,1.88,2.91,5,6,5s6-1.72,6-5c0-3.69-3.23-5-6-5V51c7,0,12,4.63,12,11S54.84,73,48,73Z"/><path class="cls-6" d="M48,57c-5.79,0-12-4.42-12-11,0-6.27,5.16-11,12-11,6.06,0,12,5.45,12,11H54c0-1.88-2.91-5-6-5s-6,1.72-6,5c0,3.1,3.49,5,6,5Z"/><rect class="cls-6" x="45" y="70" width="6" height="7" rx="2"/><rect class="cls-6" x="45" y="30" width="6" height="7" rx="2"/></g></g></svg>